<svg width="20" height="20" viewBox="0 0 20 20" fill="none" xmlns="http://www.w3.org/2000/svg">
<path d="M15.9765 1.66669C15.3734 1.66669 14.7703 1.89637 14.3098 2.35679L13.3333 3.33335L16.6666 6.66669L17.6432 5.69012C18.5632 4.77012 18.5632 3.27762 17.6432 2.35679C17.1828 1.89637 16.5796 1.66669 15.9765 1.66669ZM12.0833 4.58335L4.16661 12.5C4.16661 12.5 5.00411 12.5042 5.41661 12.9167C5.82911 13.3292 5.82025 14.1537 5.82025 14.1537C5.82025 14.1537 6.66994 14.17 7.08327 14.5834C7.49661 14.9967 7.49994 15.8334 7.49994 15.8334L15.4166 7.91669L12.0833 4.58335ZM3.05821 14.1667L2.51133 17.0866C2.46717 17.3249 2.67502 17.5328 2.91335 17.4886L5.83327 16.9418L3.05821 14.1667Z" fill="white"/>
</svg>
